<?xml version="1.0" standalone="no"?>
<!DOCTYPE svg PUBLIC "-//W3C//DTD SVG 20010904//EN"
 "http://www.w3.org/TR/2001/REC-SVG-20010904/DTD/svg10.dtd">
<svg version="1.0" xmlns="http://www.w3.org/2000/svg"
 width="313.000000pt" height="298.000000pt" viewBox="0 0 313.000000 298.000000"
 preserveAspectRatio="xMidYMid meet">

<g transform="translate(0.000000,298.000000) scale(0.100000,-0.100000)"
fill="#000000" stroke="none">
<path d="M1502 2718 c-8 -8 -12 -50 -12 -122 l0 -111 -226 -180 c-124 -99
-232 -187 -241 -197 -20 -22 -8 -56 22 -64 22 -5 24 -12 27 -72 3 -61 5 -67
26 -70 43 -6 52 13 52 114 l0 93 191 155 192 154 171 -140 c94 -78 184 -153
199 -167 l28 -27 -3 -136 -3 -135 -174 198 -174 199 -42 0 -42 0 -327 -377
c-223 -258 -326 -384 -326 -399 0 -13 9 -28 20 -34 20 -10 20 -21 20 -485 l0
-475 -174 0 c-145 0 -177 -3 -190 -16 -20 -19 -20 -38 -2 -53 10 -8 287 -10
1031 -9 943 3 1019 4 1028 20 9 13 7 22 -7 37 -19 21 -24 21 -813 21 l-793 0
0 518 1 517 54 60 55 60 0 -473 c0 -307 4 -480 10 -493 10 -18 23 -19 175 -19
146 0 165 2 173 18 10 19 5 43 -12 54 -6 4 -68 8 -138 8 l-128 0 0 501 0 500
191 220 c105 120 192 219 194 219 2 0 130 -144 285 -320 l282 -320 -1 -319
c-2 -282 0 -320 14 -335 19 -18 33 -20 55 -6 13 8 15 53 18 289 l3 280 22 3
c15 2 23 11 25 28 2 20 -22 53 -112 155 l-115 130 -1 161 c0 132 3 164 15 174
38 31 20 51 -210 240 -124 102 -230 187 -235 188 -6 2 -10 52 -10 112 0 85 -3
112 -16 124 -19 19 -36 20 -52 4z"/>
<path d="M1470 1641 c-5 -11 -10 -49 -10 -85 l0 -65 -111 -3 c-94 -3 -114 -6
-123 -20 -8 -13 -8 -23 0 -35 9 -15 29 -18 123 -21 l111 -3 0 -377 c0 -326 2
-381 16 -400 15 -22 19 -22 249 -22 221 0 235 1 245 19 13 26 13 416 0 442
-14 25 -56 25 -70 0 -6 -12 -10 -95 -10 -200 l0 -181 -170 0 -170 0 0 360 0
359 121 3 c103 3 124 6 133 20 8 13 8 23 0 35 -9 15 -30 18 -133 21 l-121 3 0
65 c0 77 -12 104 -45 104 -14 0 -29 -8 -35 -19z"/>
<path d="M670 245 c-10 -12 -10 -21 -2 -40 l12 -25 856 2 c804 3 858 4 868 20
8 13 8 23 0 35 -10 17 -64 18 -866 21 -759 2 -857 0 -868 -13z"/>
</g>
</svg>
