<?xml version="1.0" standalone="no"?>
<!DOCTYPE svg PUBLIC "-//W3C//DTD SVG 20010904//EN"
 "http://www.w3.org/TR/2001/REC-SVG-20010904/DTD/svg10.dtd">
<svg version="1.0" xmlns="http://www.w3.org/2000/svg"
 width="132.000000pt" height="131.000000pt" viewBox="0 0 132.000000 131.000000"
 preserveAspectRatio="xMidYMid meet">

<g transform="translate(0.000000,131.000000) scale(0.100000,-0.100000)"
fill="#000000" stroke="none">
<path d="M471 1212 c-67 -32 -101 -99 -101 -199 l0 -53 -45 0 c-32 0 -47 -5
-53 -17 -25 -48 -71 -400 -87 -666 l-7 -109 428 4 c290 3 438 8 455 15 26 11
27 14 22 80 -13 191 -84 645 -108 683 -3 5 -28 10 -56 10 l-49 0 0 72 c0 91
-29 146 -92 176 -56 26 -257 29 -307 4z m102 -11 c18 -6 18 -8 2 -21 -30 -25
-47 -71 -52 -146 l-6 -74 -58 0 -59 0 0 66 c0 100 32 151 109 174 33 10 41 10
64 1z m217 -30 c42 -33 59 -76 59 -153 l1 -58 -65 0 -65 0 0 67 c0 71 -28 149
-58 161 -13 5 -12 7 4 13 31 13 87 0 124 -30z m-132 -14 c28 -30 42 -77 42
-144 l0 -53 -75 0 -75 0 0 64 c0 73 10 106 40 136 26 26 42 25 68 -3z m-288
-267 c0 -29 4 -40 15 -40 11 0 15 11 15 40 l0 40 150 0 150 0 0 -40 c0 -22 5
-40 10 -40 6 0 10 18 10 40 l0 40 45 0 c25 0 45 -4 45 -9 0 -5 9 -61 20 -125
19 -114 42 -331 55 -513 l6 -93 -341 0 -340 0 0 53 c0 141 43 532 72 645 10
40 12 42 49 42 39 0 39 0 39 -40z m609 -62 c41 -198 89 -558 79 -589 -2 -5
-20 2 -40 16 l-37 25 -27 -35 c-14 -19 -30 -35 -34 -35 -4 0 -10 53 -14 118
-12 203 -45 471 -71 575 l-7 27 65 0 64 0 22 -102z m33 -599 c17 -9 18 -13 7
-20 -8 -5 -27 -9 -43 -9 -28 0 -29 0 -11 20 21 23 20 23 47 9z"/>
<path d="M510 685 l0 -55 -55 0 c-54 0 -55 0 -55 -30 0 -30 1 -30 55 -30 l55
0 0 -120 0 -120 30 0 30 0 0 120 0 120 55 0 c54 0 55 0 55 30 0 30 -1 30 -55
30 l-55 0 0 55 c0 54 0 55 -30 55 -30 0 -30 -1 -30 -55z"/>
</g>
</svg>
