<?xml version="1.0" standalone="no"?>
<!DOCTYPE svg PUBLIC "-//W3C//DTD SVG 20010904//EN"
 "http://www.w3.org/TR/2001/REC-SVG-20010904/DTD/svg10.dtd">
<svg version="1.0" xmlns="http://www.w3.org/2000/svg"
 width="132.000000pt" height="105.000000pt" viewBox="0 0 132.000000 105.000000"
 preserveAspectRatio="xMidYMid meet">

<g transform="translate(0.000000,105.000000) scale(0.100000,-0.100000)"
fill="#000000" stroke="none">
<path d="M597 943 c-4 -3 -7 -15 -7 -25 0 -13 -7 -18 -25 -18 -18 0 -25 -5
-25 -20 0 -15 7 -20 25 -20 23 0 25 -3 25 -47 l-1 -48 -194 -159 c-107 -88
-195 -165 -195 -172 0 -25 18 -23 56 7 l39 31 3 -176 c3 -205 -9 -189 137
-184 l90 3 5 113 c5 104 7 115 29 133 39 32 108 22 127 -18 4 -10 11 -65 14
-123 l5 -105 90 -3 c146 -5 134 -21 137 184 l3 176 39 -31 c38 -30 56 -32 56
-7 0 7 -90 86 -200 176 l-200 165 0 42 c0 41 1 43 30 43 23 0 30 4 30 20 0 16
-7 20 -30 20 -25 0 -30 4 -30 25 0 24 -18 34 -33 18z m162 -326 l131 -108 -2
-177 -3 -177 -72 -3 -73 -3 0 86 c0 94 -12 129 -56 164 -33 26 -95 28 -135 4
-44 -26 -59 -69 -59 -167 l0 -86 -75 0 -75 0 0 179 0 180 133 110 c72 61 137
109 144 108 6 -1 70 -51 142 -110z"/>
</g>
</svg>
