<?xml version="1.0" standalone="no"?>
<!DOCTYPE svg PUBLIC "-//W3C//DTD SVG 20010904//EN"
 "http://www.w3.org/TR/2001/REC-SVG-20010904/DTD/svg10.dtd">
<svg version="1.0" xmlns="http://www.w3.org/2000/svg"
 width="132.000000pt" height="105.000000pt" viewBox="0 0 132.000000 105.000000"
 preserveAspectRatio="xMidYMid meet">

<g transform="translate(0.000000,105.000000) scale(0.100000,-0.100000)"
fill="#000000" stroke="none">
<path d="M428 901 l-33 -29 -3 -366 -3 -366 25 -25 25 -25 293 2 c253 3 293 5
293 18 0 10 -12 16 -32 18 -29 3 -33 7 -33 33 0 24 4 29 24 29 13 0 29 6 35
14 8 9 11 114 9 367 l-3 354 -282 3 -282 2 -33 -29z m552 -336 l0 -325 -259 0
c-143 0 -266 -3 -275 -6 -14 -6 -16 25 -16 299 0 293 1 305 21 331 l20 26 255
0 254 0 0 -325z m-60 -405 l0 -30 -235 0 c-213 0 -235 2 -243 18 -21 40 -11
42 239 42 l239 0 0 -30z"/>
<path d="M690 766 l0 -55 -62 -3 c-55 -3 -63 -5 -63 -23 0 -18 8 -20 63 -23
l62 -3 0 -175 c0 -162 1 -175 18 -172 15 3 17 21 20 176 l2 172 53 0 c59 0 83
11 74 34 -5 12 -21 16 -66 16 l-60 0 -3 52 c-2 41 -7 54 -20 56 -15 3 -18 -5
-18 -52z"/>
</g>
</svg>
