<?xml version="1.0" standalone="no"?>
<!DOCTYPE svg PUBLIC "-//W3C//DTD SVG 20010904//EN"
 "http://www.w3.org/TR/2001/REC-SVG-20010904/DTD/svg10.dtd">
<svg version="1.0" xmlns="http://www.w3.org/2000/svg"
 width="132.000000pt" height="131.000000pt" viewBox="0 0 132.000000 131.000000"
 preserveAspectRatio="xMidYMid meet">

<g transform="translate(0.000000,131.000000) scale(0.100000,-0.100000)"
fill="#000000" stroke="none">
<path d="M277 1077 c-80 -56 -148 -107 -151 -114 -3 -6 45 -96 105 -199 89
-151 109 -192 104 -214 -9 -40 11 -79 46 -94 19 -8 37 -26 45 -45 8 -20 25
-37 42 -43 17 -7 33 -23 40 -40 6 -17 22 -34 39 -40 15 -6 35 -25 43 -42 20
-42 61 -61 102 -47 22 8 35 8 42 1 5 -5 24 -10 42 -10 24 0 39 8 58 33 14 17
30 36 35 40 59 54 71 68 71 81 0 9 8 16 18 16 23 0 62 40 62 63 0 9 6 17 14
17 8 0 27 11 43 24 23 20 28 32 27 68 -1 36 9 61 67 159 38 64 69 124 69 134
0 17 -204 258 -227 269 -6 2 -22 -3 -35 -13 -20 -16 -48 -18 -241 -18 l-218
-1 -39 53 c-22 30 -43 56 -48 59 -4 2 -74 -41 -155 -97z m271 -64 l42 -6 -45
-48 c-61 -66 -63 -124 -3 -155 39 -20 63 -11 121 44 l48 47 175 -176 c142
-143 175 -181 172 -200 -2 -17 -10 -25 -28 -27 -20 -2 -42 15 -110 83 -46 47
-90 85 -97 85 -34 0 -17 -30 66 -114 50 -52 91 -101 91 -109 0 -15 -28 -37
-46 -37 -4 0 -48 41 -100 91 -84 83 -114 100 -114 66 0 -7 38 -51 85 -97 68
-68 85 -90 83 -110 -2 -19 -9 -25 -28 -25 -19 0 -26 6 -28 25 -6 57 -14 71
-45 86 -19 9 -38 28 -44 45 -6 16 -24 37 -41 46 -16 9 -34 29 -40 45 -6 18
-24 34 -46 43 -20 9 -36 22 -36 29 0 21 -49 56 -79 56 -17 0 -41 -16 -74 -47
-39 -39 -50 -45 -57 -33 -54 86 -190 322 -190 328 1 4 53 44 118 89 l117 82
45 -50 c37 -42 52 -51 88 -56z m550 -78 c51 -57 92 -109 92 -114 0 -6 -28 -58
-62 -116 l-62 -105 -178 177 -178 178 -58 -58 c-58 -58 -78 -67 -100 -45 -20
20 -14 37 35 89 73 78 87 83 228 76 85 -4 130 -1 155 8 19 7 35 13 36 14 0 0
42 -46 92 -104z m-560 -310 c2 -13 -17 -40 -58 -80 -50 -50 -63 -58 -78 -49
-32 21 -25 45 30 101 40 41 59 53 78 51 16 -2 26 -10 28 -23z m80 -84 c3 -18
-10 -37 -49 -77 -58 -58 -93 -69 -104 -33 -6 17 5 33 51 81 63 63 96 73 102
29z m80 -90 c3 -17 -8 -36 -40 -68 -51 -53 -71 -65 -92 -57 -31 12 -18 56 32
107 53 54 94 62 100 18z m82 -66 c18 -21 4 -48 -51 -100 -55 -52 -91 -58 -97
-16 -3 18 10 37 49 77 55 56 78 65 99 39z m30 -115 c0 -21 -27 -40 -48 -33
-10 4 -8 11 9 29 27 29 39 30 39 4z"/>
</g>
</svg>
